<svg xmlns="http://www.w3.org/2000/svg" version="1.1" xmlns:xlink="http://www.w3.org/1999/xlink" xmlns:svgjs="http://svgjs.dev/svgjs" width="1000" height="1125" viewBox="0 0 1000 1125"><g transform="matrix(1,0,0,1,1.7053025658242404e-13,0)"><svg viewBox="0 0 320 360" data-background-color="#1b4571" preserveAspectRatio="xMidYMid meet" height="1125" width="1000" xmlns="http://www.w3.org/2000/svg" xmlns:xlink="http://www.w3.org/1999/xlink"><g id="tight-bounds" transform="matrix(1,0,0,1,0,0)"><svg viewBox="0 0 320 360" height="360" width="320"><g><svg></svg></g><g><svg viewBox="0 0 320 360" height="360" width="320"><g><path d="M20.961 227.22l3.726 4.658-1.863-6.056c-0.466-2.795-3.726 0.466-1.863 1.398M25.153 224.425c1.397 2.329 2.795 4.658 2.795 6.987 0 3.261 2.795 4.658 5.123 5.589-3.261-3.726-5.124-13.974-7.918-12.576M204.017 26.929c7.918 0 15.371-0.932 23.756 0.931 20.495 5.124 37.729 15.371 49.374 29.811l32.606 52.169c1.397 13.042 4.192 27.482 3.726 43.319 3.261 0 2.795-4.658 6.521-5.59-3.726 9.316-5.59 20.961-6.521 34.469-2.329-7.453 0-18.632 0.466-24.687-3.261 5.124-5.124 1.397-5.124-0.932 0.466-3.726-1.397-3.261-2.795-4.658-5.124-4.658-8.384-9.782-12.11-17.7 2.329-6.055 2.795-14.905-4.658-19.563-2.329-1.397-5.124-3.726-6.521-7.453-1.863-5.124-5.124-11.179-4.193-19.097 0.466-2.329-6.987 5.124-11.179 1.863-18.166-12.576-36.332-27.016-58.224-39.127-11.645 0-20.029-4.192-24.221-9.316-3.726-4.658-0.932-10.713 4.658-11.179 3.261 0 6.987-0.932 9.782 0.932 0.466-1.863 2.329-4.192 4.657-4.192M157.904 16.215l0.932 0.466c4.658 0.932 6.987 7.453 12.11 5.124 0 3.261 0.466 6.521-0.466 8.85-1.397 3.726-5.59 3.726-8.85 3.726-31.208-1.863-49.374 11.179-68.471 22.358-5.124 3.261-10.713 5.59-14.906 9.782-20.029 18.632-41.921 35.866-47.045 70.335l-4.192 38.195c-0.466 4.192-5.124 8.384-4.192 13.508l3.26 22.824c-3.261-3.261-5.124 0.932-4.192 2.795 0.466 1.397 2.329 6.055 5.124 1.863 3.726 6.987 7.453 20.495 12.576 26.55 15.837 18.632 36.332 35.4 53.101 52.169 4.192-0.932 7.453-0.932 8.384-3.727 1.397 2.795-1.397 5.59-3.726 6.056 7.453 4.658 15.837 8.85 27.016 9.781 14.44 0.932 27.948 3.261 40.524 6.522 6.521-1.863 13.042-2.795 20.029-3.261 2.329 0 3.726-3.726 6.521-4.658l0.466-4.658c2.795 4.192 2.329-1.397 0.466-4.192 3.261 2.795 4.192 5.124 5.589 6.987 0-1.397 3.726-6.521 3.727-0.466l0.931-6.055c1.397-0.932 1.863 5.124 3.261 0.931 1.397-4.192 4.192-0.932 6.987-2.329-0.932 1.863-0.466 5.59 2.794 3.261l3.727-3.261c2.329 5.59 6.055 3.261 7.918 2.329 20.495-13.042 40.99-28.413 60.553-43.784l-0.466 6.055 2.329-7.453c2.329 2.329 4.192 0.466 5.124-0.931 2.795-4.658 6.521-9.316 12.577-13.508-7.453 20.029-16.303 35.866-27.482 48.908l-4.658 5.59c0 3.261-0.932 7.453-4.658 7.918-1.863 0.466-5.59-0.932-8.384 1.863-1.397 1.863 3.261 5.59-0.466 2.795-3.261-2.329-6.521 0-10.248 0.932-2.795 0.932 1.863 3.726 2.795 5.589 0.932 1.863 1.863 3.726 1.398 6.056l-5.124-5.59c-6.055 3.261-9.782 9.316-14.906 13.974-2.329 1.863-1.397 5.124-1.397 7.918-3.261 0-6.987-0.932-8.85 0.932-1.397 1.863-0.932 4.658-0.932 7.453-4.658-0.466-5.124-7.453-9.315-6.056-4.192 0.932-8.85 1.397-12.577 3.727 2.795 5.59-4.658 2.329-3.726 3.26-6.987-4.192-13.042-7.453-20.495-4.658-15.837-5.124-35.4-2.795-49.84-0.931 0-2.329 0.466-4.658-0.466-5.124-0.932 2.329-3.726 1.397-3.26 1.397-8.85-6.055-17.7-9.782-27.016-14.905-8.384 0.932-16.303-3.261-18.632-5.59-6.521-6.055-13.974-2.795-20.029-4.192-13.042-3.261-17.7-16.769-19.098-26.084-0.932-4.658-4.658-6.521-6.055-6.056-6.055-19.563-15.371-37.263-22.824-55.429-1.863-4.658-1.397-9.316-1.397-14.44 2.329 0.932 4.658 0.466 4.192-2.794-2.329-15.371-7.918-27.016-13.974-38.195 3.261-15.837 3.726-34.469 11.179-48.443 6.521-12.576 18.632-19.098 27.016-29.811 2.795-3.726 2.795-8.85 5.59-12.11 9.316-9.316 18.632-19.098 28.879-27.482 4.658-3.726 10.247 0 17.234-1.397 2.329-8.384 11.645-15.837 20.495-13.508 3.726 0.932 11.179-8.85 13.508-9.782 3.726-1.397 1.863 3.726 1.863 6.987 8.85-6.987 20.961-10.713 32.14-14.906" fill="#ffffff" fill-rule="nonzero" stroke="none" stroke-width="1" stroke-linecap="butt" stroke-linejoin="miter" stroke-miterlimit="10" stroke-dasharray="" stroke-dashoffset="0" font-family="none" font-weight="none" font-size="none" text-anchor="none" style="mix-blend-mode: normal" data-fill-palette-color="tertiary"></path></g><g transform="matrix(1,0,0,1,64.00000000000001,166.40408369656657)"><svg viewBox="0 0 191.99999999999997 27.191832606866843" height="27.191832606866843" width="191.99999999999997"><g><svg viewBox="0 0 191.99999999999997 27.191832606866843" height="27.191832606866843" width="191.99999999999997"><g><svg viewBox="0 0 191.99999999999997 27.191832606866843" height="27.191832606866843" width="191.99999999999997"><g><svg viewBox="0 0 191.99999999999997 27.191832606866843" height="27.191832606866843" width="191.99999999999997"><g id="textblocktransform"><svg viewBox="0 0 191.99999999999997 27.191832606866843" height="27.191832606866843" width="191.99999999999997" id="textblock"><g><svg viewBox="0 0 191.99999999999997 27.191832606866843" height="27.191832606866843" width="191.99999999999997"><g transform="matrix(1,0,0,1,0,0)"><svg width="191.99999999999997" viewBox="3.7 -36 336.0709505703422 47.6" height="27.191832606866843" data-palette-color="#ffffff"><path d="M24.2 0L3.7 0 3.7-35 7.9-35 7.9-3.35 24.2-3.35 24.2 0ZM39.95 0.6L39.95 0.6Q36.45 0.6 33.65-1 30.85-2.6 29.22-5.53 27.6-8.45 27.6-12.4L27.6-12.4Q27.6-16.35 29.25-19.28 30.9-22.2 33.72-23.8 36.55-25.4 40.05-25.4L40.05-25.4Q43.55-25.4 46.35-23.8 49.15-22.2 50.77-19.28 52.4-16.35 52.4-12.4L52.4-12.4Q52.4-8.45 50.75-5.53 49.1-2.6 46.27-1 43.45 0.6 39.95 0.6ZM39.95-3L39.95-3Q42.1-3 43.95-4.05 45.8-5.1 46.95-7.2 48.1-9.3 48.1-12.4L48.1-12.4Q48.1-15.5 46.97-17.6 45.85-19.7 44-20.75 42.15-21.8 40.05-21.8L40.05-21.8Q37.9-21.8 36.05-20.75 34.2-19.7 33.05-17.6 31.9-15.5 31.9-12.4L31.9-12.4Q31.9-9.3 33.05-7.2 34.2-5.1 36.02-4.05 37.85-3 39.95-3ZM69.65 0.6L69.65 0.6Q66.09 0.6 63.27-1.03 60.45-2.65 58.82-5.58 57.2-8.5 57.2-12.4L57.2-12.4Q57.2-16.3 58.82-19.23 60.45-22.15 63.27-23.78 66.09-25.4 69.65-25.4L69.65-25.4Q74.05-25.4 77.07-23.1 80.09-20.8 80.9-16.95L80.9-16.95 76.59-16.95Q76.09-19.25 74.15-20.53 72.2-21.8 69.59-21.8L69.59-21.8Q67.5-21.8 65.65-20.75 63.8-19.7 62.65-17.6 61.5-15.5 61.5-12.4L61.5-12.4Q61.5-9.3 62.65-7.2 63.8-5.1 65.65-4.03 67.5-2.95 69.59-2.95L69.59-2.95Q72.2-2.95 74.15-4.23 76.09-5.5 76.59-7.85L76.59-7.85 80.9-7.85Q80.15-4.1 77.09-1.75 74.05 0.6 69.65 0.6ZM94.99 0.6L94.99 0.6Q91.89 0.6 89.84-0.45 87.79-1.5 86.79-3.25 85.79-5 85.79-7.05L85.79-7.05Q85.79-10.85 88.69-12.9 91.59-14.95 96.59-14.95L96.59-14.95 103.29-14.95 103.29-15.25Q103.29-18.5 101.59-20.18 99.89-21.85 97.04-21.85L97.04-21.85Q94.59-21.85 92.82-20.63 91.04-19.4 90.59-17.05L90.59-17.05 86.29-17.05Q86.54-19.75 88.12-21.6 89.69-23.45 92.04-24.43 94.39-25.4 97.04-25.4L97.04-25.4Q102.24-25.4 104.87-22.63 107.49-19.85 107.49-15.25L107.49-15.25 107.49 0 103.74 0 103.49-4.45Q102.44-2.35 100.42-0.88 98.39 0.6 94.99 0.6ZM95.64-2.95L95.64-2.95Q98.04-2.95 99.77-4.2 101.49-5.45 102.39-7.45 103.29-9.45 103.29-11.65L103.29-11.65 103.29-11.7 96.94-11.7Q93.24-11.7 91.72-10.43 90.19-9.15 90.19-7.25L90.19-7.25Q90.19-5.3 91.62-4.13 93.04-2.95 95.64-2.95ZM117.99 0L113.79 0 113.79-36 117.99-36 117.99 0ZM151.09 0L138.38 0 138.38-35 150.69-35Q154.38-35 156.81-33.83 159.24-32.65 160.44-30.63 161.63-28.6 161.63-26.1L161.63-26.1Q161.63-22.7 159.81-20.75 157.99-18.8 155.44-18.05L155.44-18.05Q157.38-17.7 158.99-16.5 160.59-15.3 161.51-13.5 162.44-11.7 162.44-9.55L162.44-9.55Q162.44-6.9 161.13-4.73 159.84-2.55 157.28-1.28 154.74 0 151.09 0L151.09 0ZM142.59-31.5L142.59-19.7 150.38-19.7Q153.74-19.7 155.53-21.28 157.34-22.85 157.34-25.65L157.34-25.65Q157.34-28.3 155.56-29.9 153.78-31.5 150.24-31.5L150.24-31.5 142.59-31.5ZM142.59-16.35L142.59-3.5 150.63-3.5Q154.24-3.5 156.19-5.18 158.13-6.85 158.13-9.85L158.13-9.85Q158.13-12.8 156.09-14.58 154.03-16.35 150.53-16.35L150.53-16.35 142.59-16.35ZM179.53 0.6L179.53 0.6Q176.03 0.6 173.23-1 170.43-2.6 168.81-5.53 167.18-8.45 167.18-12.4L167.18-12.4Q167.18-16.35 168.83-19.28 170.48-22.2 173.31-23.8 176.13-25.4 179.63-25.4L179.63-25.4Q183.13-25.4 185.93-23.8 188.73-22.2 190.36-19.28 191.98-16.35 191.98-12.4L191.98-12.4Q191.98-8.45 190.33-5.53 188.68-2.6 185.86-1 183.03 0.6 179.53 0.6ZM179.53-3L179.53-3Q181.68-3 183.53-4.05 185.38-5.1 186.53-7.2 187.68-9.3 187.68-12.4L187.68-12.4Q187.68-15.5 186.56-17.6 185.43-19.7 183.58-20.75 181.73-21.8 179.63-21.8L179.63-21.8Q177.48-21.8 175.63-20.75 173.78-19.7 172.63-17.6 171.48-15.5 171.48-12.4L171.48-12.4Q171.48-9.3 172.63-7.2 173.78-5.1 175.61-4.05 177.43-3 179.53-3ZM209.13 0.6L209.13 0.6Q205.63 0.6 202.83-1 200.03-2.6 198.41-5.53 196.78-8.45 196.78-12.4L196.78-12.4Q196.78-16.35 198.43-19.28 200.08-22.2 202.91-23.8 205.73-25.4 209.23-25.4L209.23-25.4Q212.73-25.4 215.53-23.8 218.33-22.2 219.95-19.28 221.58-16.35 221.58-12.4L221.58-12.4Q221.58-8.45 219.93-5.53 218.28-2.6 215.45-1 212.63 0.6 209.13 0.6ZM209.13-3L209.13-3Q211.28-3 213.13-4.05 214.98-5.1 216.13-7.2 217.28-9.3 217.28-12.4L217.28-12.4Q217.28-15.5 216.16-17.6 215.03-19.7 213.18-20.75 211.33-21.8 209.23-21.8L209.23-21.8Q207.08-21.8 205.23-20.75 203.38-19.7 202.23-17.6 201.08-15.5 201.08-12.4L201.08-12.4Q201.08-9.3 202.23-7.2 203.38-5.1 205.2-4.05 207.03-3 209.13-3ZM231.63 0L227.43 0 227.43-36 231.63-36 231.63-14.35 241.78-24.8 246.93-24.8 235.93-13.6 248.33 0 242.98 0 231.63-12.85 231.63 0ZM255.18-30.3L255.18-30.3Q253.93-30.3 253.1-31.13 252.28-31.95 252.28-33.2L252.28-33.2Q252.28-34.4 253.1-35.2 253.93-36 255.18-36L255.18-36Q256.38-36 257.23-35.2 258.07-34.4 258.07-33.2L258.07-33.2Q258.07-31.95 257.23-31.13 256.38-30.3 255.18-30.3ZM257.28 0L253.08 0 253.08-24.8 257.28-24.8 257.28 0ZM268.77 0L264.57 0 264.57-24.8 268.37-24.8 268.62-20.35Q269.82-22.7 272.07-24.05 274.32-25.4 277.17-25.4L277.17-25.4Q281.57-25.4 284.2-22.73 286.82-20.05 286.82-14.5L286.82-14.5 286.82 0 282.62 0 282.62-14.05Q282.62-21.8 276.22-21.8L276.22-21.8Q273.02-21.8 270.9-19.48 268.77-17.15 268.77-12.85L268.77-12.85 268.77 0ZM302.97-7.8L302.97-7.8Q300.87-7.8 299.12-8.35L299.12-8.35 296.62-6Q297.17-5.6 298-5.33 298.82-5.05 300.37-4.83 301.92-4.6 304.72-4.35L304.72-4.35Q309.72-4 311.87-2.05 314.02-0.1 314.02 3.05L314.02 3.05Q314.02 5.2 312.85 7.15 311.67 9.1 309.25 10.35 306.82 11.6 303.02 11.6L303.02 11.6Q299.67 11.6 297.07 10.73 294.47 9.85 293.02 8.08 291.57 6.3 291.57 3.6L291.57 3.6Q291.57 2.2 292.32 0.58 293.07-1.05 295.12-2.5L295.12-2.5Q294.02-2.95 293.25-3.48 292.47-4 291.82-4.65L291.82-4.65 291.82-5.8 296.07-10Q293.12-12.5 293.12-16.6L293.12-16.6Q293.12-19.05 294.27-21.05 295.42-23.05 297.62-24.23 299.82-25.4 302.97-25.4L302.97-25.4Q305.12-25.4 306.87-24.8L306.87-24.8 316.02-24.8 316.02-21.65 311.37-21.45Q312.82-19.35 312.82-16.6L312.82-16.6Q312.82-14.15 311.65-12.15 310.47-10.15 308.3-8.97 306.12-7.8 302.97-7.8ZM302.97-11.25L302.97-11.25Q305.62-11.25 307.2-12.63 308.77-14 308.77-16.6L308.77-16.6Q308.77-19.15 307.2-20.53 305.62-21.9 302.97-21.9L302.97-21.9Q300.27-21.9 298.7-20.53 297.12-19.15 297.12-16.6L297.12-16.6Q297.12-14 298.7-12.63 300.27-11.25 302.97-11.25ZM295.67 3.2L295.67 3.2Q295.67 5.7 297.77 6.93 299.87 8.15 303.02 8.15L303.02 8.15Q306.12 8.15 308 6.8 309.87 5.45 309.87 3.2L309.87 3.2Q309.87 1.6 308.57 0.43 307.27-0.75 303.77-0.95L303.77-0.95Q301.02-1.15 299.02-1.45L299.02-1.45Q296.97-0.35 296.32 0.93 295.67 2.2 295.67 3.2ZM330.27 0.6L330.27 0.6Q325.82 0.6 322.87-1.65 319.92-3.9 319.42-7.75L319.42-7.75 323.72-7.75Q324.12-5.8 325.79-4.38 327.47-2.95 330.32-2.95L330.32-2.95Q332.97-2.95 334.22-4.08 335.47-5.2 335.47-6.75L335.47-6.75Q335.47-9 333.84-9.75 332.22-10.5 329.27-11.1L329.27-11.1Q327.27-11.5 325.27-12.25 323.27-13 321.92-14.38 320.57-15.75 320.57-18L320.57-18Q320.57-21.25 322.99-23.33 325.42-25.4 329.57-25.4L329.57-25.4Q333.52-25.4 336.04-23.43 338.57-21.45 338.97-17.8L338.97-17.8 334.82-17.8Q334.57-19.7 333.19-20.78 331.82-21.85 329.52-21.85L329.52-21.85Q327.27-21.85 326.04-20.9 324.82-19.95 324.82-18.4L324.82-18.4Q324.82-16.9 326.39-16.05 327.97-15.2 330.67-14.6L330.67-14.6Q332.97-14.1 335.04-13.38 337.12-12.65 338.44-11.23 339.77-9.8 339.77-7.1L339.77-7.1Q339.82-3.75 337.24-1.58 334.67 0.6 330.27 0.6Z" opacity="1" transform="matrix(1,0,0,1,0,0)" fill="#ffffff" class="wordmark-text-0" data-fill-palette-color="primary" id="text-0"></path></svg></g></svg></g></svg></g></svg></g><g></g></svg></g></svg></g></svg></g></svg></g><defs></defs></svg><rect width="320" height="360" fill="none" stroke="none" visibility="hidden"></rect></g></svg></g></svg>